<?xml version="1.0" encoding="UTF-8"?><svg id="a" xmlns="http://www.w3.org/2000/svg" viewBox="0 0 1044.55 1200"><defs><style>.b{fill:#544950;}.c{fill:#f3a540;}</style></defs><g><polygon class="b" points="941.45 403.73 941.45 846.41 537.47 1079.64 537.47 1188.96 1036.13 901.05 1036.13 348.92 941.45 403.73"/><polygon class="b" points="103.1 404.01 8.42 349.31 8.42 901.05 504.42 1187.42 504.42 1078.1 103.1 846.41 103.1 404.01"/><path class="c" d="M522.28,11.04L22.46,299.63l94.67,54.68L522.28,120.4l402.51,232.94,94.26-54.43L522.28,11.04Z"/></g><path class="b" d="M244.43,644.95c53.38,30.82,106.76,61.64,160.14,92.46v96.13l-160.14-92.46v160.97c-33.96-19.61-67.92-39.22-101.88-58.82V425.92c120.46,69.55,240.92,139.1,361.39,208.65v96.12l-259.5-149.83v64.09Z"/><path class="b" d="M537.49,1055.18v-417.3c88.25-50.95,176.5-101.91,264.75-152.86,22.16-11.3,46.76-18.93,68.62-2.24,23.15,17.68,27.09,47.48,28.02,74.61v289.14c-24.02,13.87-48.03,27.73-72.05,41.6v-289.14c0-9.16-2.3-15.45-6.91-18.9-4.61-3.44-10.37-3.17-17.29,.83-16.14,9.32-32.28,18.64-48.42,27.95v321.18l-72.05,41.6v-321.18c-24.21,13.98-48.41,27.95-72.62,41.93v321.18c-24.02,13.87-48.03,27.73-72.05,41.6Z"/><path class="c" d="M773.98,443.59c-29.4,18.21-66.46,21.71-101.06,21.76,1.64,27.52-17.33,45.88-38.35,58.73-34.66,21.17-79.51,23.64-119.49,21.03-45.99-3.01-91.97-14.96-132.8-38.53-73.36-42.36-146.73-84.71-220.09-127.07,120.46-69.55,240.92-139.1,361.39-208.65,72.22,41.7,144.44,83.4,216.66,125.09,29.44,17.95,61.86,42.34,69.97,77.78,7.2,31.48-11.41,54.49-36.23,69.86Zm-116.55-99.33c-36.4-21.01-72.79-42.03-109.19-63.04-18.5,10.68-37,21.36-55.5,32.04,36.4,21.01,72.79,42.03,109.19,63.04,10.31,5.92,22.35,9.51,33.82,9.99,9.97,.41,21.06,.4,30.33-4.99,7.89-4.59,11.07-10.39,9.42-17.45-1.65-7.05-7.67-13.59-18.07-19.59Zm-138.75,80.11c-36.4-21.01-72.79-42.03-109.19-63.04-18.72,10.81-37.44,21.62-56.16,32.42,36.4,21.01,72.79,42.03,109.19,63.04,10.31,5.92,22.35,9.52,33.82,9.99,9.97,.41,21.06,.4,30.33-4.99,7.89-4.59,11.18-10.46,9.75-17.64-1.42-7.17-7.34-13.78-17.74-19.78Z"/></svg>